<?xml version="1.0" standalone="no"?>
<!DOCTYPE svg PUBLIC "-//W3C//DTD SVG 20010904//EN"
 "http://www.w3.org/TR/2001/REC-SVG-20010904/DTD/svg10.dtd">
<svg version="1.0" xmlns="http://www.w3.org/2000/svg"
 width="1024.000000pt" height="1024.000000pt" viewBox="0 0 1024.000000 1024.000000"
 preserveAspectRatio="xMidYMid meet">

<g transform="translate(0.000000,1024.000000) scale(0.100000,-0.100000)"
fill="#000000" stroke="none">
<path d="M0 5120 l0 -5120 5120 0 5120 0 0 5120 0 5120 -5120 0 -5120 0 0
-5120z m2795 1215 c86 -54 90 -69 90 -365 l0 -255 -50 1 c-27 1 -67 9 -87 17
l-38 16 0 202 c0 174 -2 205 -17 221 -15 17 -58 18 -958 18 l-942 0 -19 -21
c-18 -20 -19 -47 -16 -893 3 -817 5 -873 21 -896 l18 -25 969 -5 c865 -4 969
-7 972 -21 5 -27 -56 -97 -108 -124 l-49 -25 -909 0 c-653 0 -919 3 -943 11
-53 18 -100 58 -119 103 -17 38 -19 103 -22 993 l-3 951 31 39 c35 42 80 72
127 84 18 4 476 6 1018 6 l986 -2 48 -30z m-1064 -362 c54 -32 59 -57 59 -317
0 -264 -5 -291 -62 -326 -31 -19 -50 -20 -331 -20 -319 0 -348 4 -381 51 -14
20 -16 60 -16 287 0 167 4 271 11 283 5 11 25 29 42 39 30 19 53 20 340 20
273 0 312 -2 338 -17z m699 -118 c24 -22 26 -62 4 -93 -15 -22 -19 -22 -239
-22 l-224 0 -20 26 c-12 15 -21 34 -21 43 0 25 28 59 53 65 12 2 113 3 224 2
180 -2 205 -5 223 -21z m1602 -36 c127 -27 237 -108 287 -212 17 -34 33 -74
37 -89 l6 -28 -101 0 -100 0 -17 33 c-42 83 -108 121 -209 121 -84 0 -135 -23
-189 -85 -53 -62 -71 -125 -71 -244 1 -157 47 -255 145 -305 116 -59 284 -10
322 96 l12 34 103 0 c100 0 103 -1 103 -22 0 -63 -92 -194 -170 -243 -100 -63
-238 -87 -356 -62 -181 39 -301 156 -349 342 -20 79 -20 249 1 329 64 247 294
388 546 335z m2978 -183 l0 -180 38 36 c73 70 152 91 243 64 69 -20 122 -64
157 -130 l27 -51 0 -275 0 -275 -91 -3 -92 -3 -4 238 c-3 202 -6 243 -21 270
-45 84 -182 84 -232 0 -18 -29 -21 -57 -25 -267 l-5 -235 -92 -3 -93 -3 0 494
c0 271 3 496 6 499 3 4 46 6 95 5 l89 -1 0 -180z m1312 -168 c3 -389 3 -387
68 -442 93 -78 251 -43 301 68 17 37 19 71 19 384 l0 343 98 -3 97 -3 3 -350
c2 -326 1 -354 -18 -416 -48 -159 -202 -248 -409 -237 -145 8 -248 64 -308
165 -47 81 -53 130 -53 494 0 185 3 339 7 342 3 4 48 7 99 7 l93 0 3 -352z
m-482 182 l0 -90 80 0 81 0 -3 -77 -3 -78 -77 -3 -78 -3 0 -188 c0 -226 2
-231 93 -239 l57 -4 0 -70 c0 -83 0 -83 -126 -83 -80 0 -95 3 -127 25 -20 13
-46 43 -59 65 -22 38 -23 51 -26 268 l-3 227 -45 0 -44 0 0 80 0 80 45 0 45 0
0 90 0 90 95 0 95 0 0 -90z m-5054 -43 c84 -31 146 -69 211 -131 201 -189 247
-457 122 -702 -33 -65 -38 -80 -26 -89 7 -5 91 -79 185 -164 171 -153 192
-180 192 -241 0 -71 -86 -137 -163 -125 -36 6 -54 18 -131 98 -49 51 -129 138
-178 193 l-89 102 -57 -29 c-221 -110 -486 -66 -662 111 -115 114 -174 257
-174 420 0 244 152 464 383 551 100 38 291 41 387 6z m2162 -78 c75 -37 116
-87 132 -162 7 -33 10 -142 8 -297 l-3 -245 -90 0 -90 0 -5 32 -5 32 -44 -29
c-56 -38 -100 -50 -181 -50 -142 0 -240 88 -240 215 0 52 21 109 53 143 46 50
97 65 295 91 81 11 112 30 112 68 0 37 -18 63 -55 79 -68 28 -144 6 -175 -51
-16 -29 -18 -30 -99 -31 -94 -2 -101 4 -83 64 24 79 114 151 216 172 76 17
184 3 254 -31z m1417 30 c24 -6 62 -26 84 -45 l39 -34 7 40 7 40 94 0 95 0 -3
-402 c-3 -400 -3 -403 -27 -456 -30 -65 -94 -124 -170 -153 -44 -18 -77 -22
-156 -23 -111 0 -188 21 -251 69 -36 28 -78 93 -89 138 l-7 27 99 0 c97 0 100
-1 111 -25 14 -31 83 -64 132 -65 20 0 56 10 80 23 60 29 80 71 80 161 l0 70
-32 -31 c-55 -52 -95 -67 -178 -67 -94 -1 -162 28 -220 90 -121 131 -131 380
-21 532 71 98 202 142 326 111z m3212 -25 c255 -123 251 -563 -7 -695 -93 -49
-230 -34 -299 31 l-31 28 -2 -177 -3 -176 -95 0 -95 0 0 505 0 505 95 0 95 0
5 -45 c3 -29 7 -39 12 -28 8 20 88 68 131 79 50 13 137 1 194 -27z m-4177
-234 c5 -265 7 -272 63 -305 52 -31 146 -1 180 58 8 15 14 96 17 257 l5 235
98 3 97 3 -2 -363 -3 -363 -95 0 -95 0 0 48 c0 26 -1 47 -2 47 -2 0 -21 -18
-44 -39 -56 -55 -111 -74 -198 -69 -91 5 -142 39 -186 124 l-30 58 -3 264 c-2
145 -1 271 2 279 4 11 26 13 98 11 l93 -3 5 -245z m-3600 -200 c29 -29 26 -74
-6 -99 -26 -20 -38 -21 -388 -21 -351 0 -363 1 -384 20 -28 26 -29 73 -2 100
19 19 33 20 390 20 357 0 371 -1 390 -20z m140 -390 c29 -29 26 -74 -6 -99
-26 -21 -37 -21 -458 -21 -421 0 -433 1 -454 20 -28 26 -29 73 -2 100 19 19
33 20 460 20 427 0 441 -1 460 -20z"/>
<path d="M2476 5441 c-241 -80 -354 -349 -242 -576 89 -180 286 -272 467 -219
76 23 124 49 174 95 221 204 161 562 -115 687 -77 34 -202 40 -284 13z"/>
<path d="M4815 5145 c-33 -7 -76 -16 -96 -19 -58 -10 -89 -40 -89 -87 0 -56
26 -79 90 -79 102 0 170 61 170 153 0 26 -3 46 -7 46 -5 -1 -35 -7 -68 -14z"/>
<path d="M6264 5396 c-75 -33 -118 -147 -96 -253 7 -32 20 -69 30 -83 76 -102
212 -92 270 20 32 62 28 184 -9 249 -40 71 -121 99 -195 67z"/>
<path d="M9347 5396 c-80 -29 -106 -81 -107 -206 0 -143 52 -215 154 -215 107
0 171 80 170 215 0 110 -46 188 -125 210 -42 12 -45 12 -92 -4z"/>
</g>
</svg>
