<?xml version="1.0" standalone="no"?>
<!DOCTYPE svg PUBLIC "-//W3C//DTD SVG 20010904//EN"
 "http://www.w3.org/TR/2001/REC-SVG-20010904/DTD/svg10.dtd">
<svg version="1.0" xmlns="http://www.w3.org/2000/svg"
 width="1024.000000pt" height="1024.000000pt" viewBox="0 0 1024.000000 1024.000000"
 preserveAspectRatio="xMidYMid meet">

<g transform="translate(0.000000,1024.000000) scale(0.100000,-0.100000)"
fill="#000000" stroke="none">
<path d="M2255 8194 c-11 -2 -45 -9 -75 -15 -97 -19 -211 -81 -287 -157 -82
-82 -128 -157 -162 -265 l-26 -82 -3 -2145 c-2 -1377 1 -2181 7 -2245 6 -55
19 -126 30 -158 49 -141 157 -267 288 -335 151 -78 -34 -72 2210 -72 2001 0
2009 0 2083 21 184 51 335 182 408 356 27 64 28 77 5 64 -10 -5 -72 -22 -138
-37 l-120 -29 -2110 0 -2110 0 -48 24 c-52 25 -92 71 -113 128 -11 31 -13 418
-13 2193 0 1388 3 2170 9 2198 15 61 56 119 109 150 l46 27 2044 3 c1349 1
2056 -1 2081 -8 53 -14 99 -48 135 -98 l30 -44 3 -563 3 -562 83 -17 c74 -15
227 -59 279 -81 17 -7 18 19 14 621 -3 552 -5 636 -20 684 -59 196 -210 352
-402 418 l-80 27 -2070 1 c-1138 1 -2079 0 -2090 -2z"/>
<path d="M2736 7295 c-73 -30 -128 -82 -164 -155 l-27 -55 0 -650 0 -650 29
-53 c37 -66 92 -117 161 -148 l53 -24 643 2 c644 3 644 3 689 25 66 33 128 98
164 173 l31 65 3 575 c2 405 0 593 -8 635 -22 114 -85 201 -183 253 l-52 27
-640 2 -640 3 -59 -25z"/>
<path d="M4835 7100 c-149 -20 -212 -193 -112 -307 57 -64 43 -63 617 -63 503
0 522 1 560 20 76 39 117 142 90 225 -17 51 -64 101 -107 116 -38 12 -963 20
-1048 9z"/>
<path d="M5950 6310 c-146 -26 -255 -62 -395 -130 -384 -186 -681 -537 -800
-946 -77 -264 -73 -597 10 -864 79 -252 248 -502 458 -679 291 -244 612 -361
990 -361 302 0 558 64 765 189 77 47 79 48 92 28 14 -23 824 -902 910 -988 69
-69 141 -99 234 -99 93 0 151 24 217 89 82 82 109 184 78 296 -24 87 -28 91
-876 888 l-221 208 45 67 c112 166 198 394 229 605 20 135 14 390 -11 507
-119 543 -497 972 -1005 1139 -152 50 -229 62 -430 66 -152 4 -203 1 -290 -15z
m442 -375 c491 -85 865 -488 920 -990 57 -523 -277 -1027 -787 -1188 -182 -57
-433 -62 -614 -13 -448 124 -774 509 -821 971 -52 511 278 1017 768 1179 162
54 369 70 534 41z"/>
<path d="M2623 5019 c-139 -69 -132 -275 12 -340 38 -17 83 -19 785 -18 787 0
792 0 842 46 56 50 79 165 45 228 -20 39 -65 81 -100 94 -19 8 -275 11 -785
11 -744 0 -758 0 -799 -21z"/>
<path d="M2668 4140 c-88 -26 -142 -97 -142 -185 0 -88 49 -155 133 -183 46
-16 1628 -17 1684 -1 52 14 113 77 128 131 27 101 -36 212 -134 236 -54 14
-1624 16 -1669 2z"/>
</g>
</svg>
