<svg version="1.1" id="Layer_1" xmlns="http://www.w3.org/2000/svg" xmlns:xlink="http://www.w3.org/1999/xlink" x="0px" y="0px"
	 width="100%" viewBox="0 0 1024 1024" enable-background="new 0 0 1024 1024" xml:space="preserve">
<path fill="#000000" opacity="1.000000" stroke="none" 
	d="
M349.272278,508.138428 
	C352.022339,523.745056 349.650085,538.049255 341.745209,551.317993 
	C340.298737,553.745972 340.420380,555.333801 342.476318,557.363159 
	C352.200592,566.961487 361.827148,576.660461 371.385284,586.424622 
	C375.647644,590.778931 376.549438,595.376160 373.969666,600.047668 
	C371.526398,604.471985 368.101501,607.607605 362.455841,607.387268 
	C359.235443,607.261536 357.311859,605.344727 355.304474,603.338135 
	C345.639679,593.677429 335.871948,584.116211 326.375305,574.292908 
	C323.665344,571.489746 321.391815,571.028931 318.218994,573.164062 
	C316.583618,574.264587 314.702545,575.177734 312.801544,575.674255 
	C305.633636,577.546692 299.795288,580.144409 296.458221,588.009033 
	C293.708710,594.488953 286.767273,596.442200 279.554199,596.457397 
	C228.569855,596.564880 177.585815,596.805786 126.601593,596.981140 
	C121.279404,596.999451 115.964714,597.377319 110.636917,596.554932 
	C99.587479,594.849426 92.700645,587.039673 92.680244,575.531433 
	C92.622635,543.033447 92.656670,510.535278 92.657242,478.037170 
	C92.657593,458.371643 92.653748,438.706146 92.668938,419.040619 
	C92.680061,404.628326 100.555923,396.660248 114.785118,396.659180 
	C170.448547,396.654907 226.111969,396.654724 281.775391,396.660645 
	C296.240723,396.662170 304.323700,404.747498 304.333801,419.197235 
	C304.342407,431.529846 304.373596,443.862579 304.323456,456.194977 
	C304.312500,458.886261 304.619202,460.818817 307.798981,461.851013 
	C330.352875,469.172211 343.825775,484.824188 349.272278,508.138428 
M108.251869,518.500000 
	C108.254120,536.658020 108.230255,554.816101 108.272591,572.973999 
	C108.287697,579.453857 110.474121,581.635254 117.020218,581.637939 
	C169.662140,581.659668 222.304062,581.645447 274.945984,581.641846 
	C277.244965,581.641663 279.547089,581.649963 281.815521,579.884094 
	C280.026276,579.353760 278.525391,578.771423 276.970032,578.470154 
	C266.209229,576.386108 256.781464,571.539062 249.027878,563.927917 
	C230.850525,546.084473 226.117767,524.359802 233.714127,500.631226 
	C241.387039,476.663513 259.083710,463.408478 283.813904,459.898956 
	C288.191498,459.277710 288.923981,457.652161 288.876587,453.945831 
	C288.735992,442.952789 288.875427,431.956482 288.798340,420.962189 
	C288.748413,413.842834 286.899994,412.085083 279.870667,412.081665 
	C225.897675,412.055420 171.924683,412.034973 117.951683,412.004730 
	C109.749367,412.000122 108.286385,413.407959 108.282341,421.545380 
	C108.266449,453.530243 108.261383,485.515137 108.251869,518.500000 
M247.363663,530.133240 
	C247.714798,531.412598 248.010239,532.710266 248.425400,533.968506 
	C255.284027,554.754333 275.927856,566.513306 294.302429,564.403442 
	C316.988525,561.798523 333.719971,544.129395 334.572571,522.351868 
	C335.586914,496.442841 315.535950,474.635742 289.396973,475.214417 
	C262.097870,475.818787 240.654053,502.892456 247.363663,530.133240 
z"/>
<path fill="#000000" opacity="1.000000" stroke="none" 
	d="
M672.423889,488.826935 
	C672.398071,506.283966 672.319092,523.271057 672.369019,540.257690 
	C672.392944,548.397034 668.928955,554.686829 662.583130,559.475830 
	C649.560913,569.303101 627.683289,569.063232 614.925781,559.071838 
	C612.417664,557.107483 610.384399,554.799438 608.700562,551.860046 
	C612.843811,548.501587 617.431152,546.534241 621.697754,544.050537 
	C623.606262,542.939575 624.779785,543.953003 625.857788,545.442505 
	C630.118347,551.329285 636.306763,552.322510 642.816589,551.472778 
	C651.986389,550.275696 656.090942,543.010986 653.919556,531.788879 
	C648.318787,536.749634 641.900024,539.078369 634.693970,538.676453 
	C618.610718,537.779419 608.755798,527.932678 606.860962,510.892639 
	C606.193909,504.893463 606.901245,498.974121 608.182312,493.070282 
	C612.902466,471.317627 638.825623,464.420624 654.058350,478.154999 
	C654.224487,471.735168 658.600403,472.579407 662.719666,472.619324 
	C672.416382,472.713348 672.417297,472.647339 672.424744,482.361420 
	C672.426331,484.359894 672.424133,486.358337 672.423889,488.826935 
M653.464661,497.253784 
	C650.519897,489.223633 645.841248,485.877228 638.292847,486.402130 
	C631.620728,486.866089 628.152771,490.473969 626.090210,498.752167 
	C624.890015,503.569092 625.136414,508.284363 626.396606,513.014893 
	C628.138245,519.552246 632.422791,523.275269 638.622620,523.625000 
	C645.306335,524.002014 650.444580,520.566345 652.888367,514.192444 
	C654.925781,508.878357 655.081055,503.509247 653.464661,497.253784 
z"/>
<path fill="#000000" opacity="1.000000" stroke="none" 
	d="
M824.509277,539.957642 
	C809.494141,534.898743 802.453613,524.123840 802.044983,509.290710 
	C801.518005,490.159027 801.889893,471.003113 801.815063,451.857849 
	C801.803772,448.975220 802.825012,447.582001 805.891968,447.638733 
	C824.286499,447.978943 820.955139,444.950287 821.207458,461.683838 
	C821.433350,476.664948 821.210510,491.652344 821.364075,506.635162 
	C821.507202,520.599609 831.897583,527.929321 845.060242,523.542114 
	C851.710327,521.325623 855.596985,514.819641 855.629456,505.459351 
	C855.689453,488.144501 855.782043,470.827545 855.559082,453.515350 
	C855.500610,448.976807 856.856995,447.504822 861.467285,447.545135 
	C875.283508,447.665985 875.295471,447.484161 875.284973,461.096619 
	C875.273376,476.247192 875.413940,491.400574 875.170654,506.547638 
	C874.892822,523.845093 865.275330,536.676208 850.108032,540.169617 
	C841.746521,542.095459 833.294006,541.979431 824.509277,539.957642 
z"/>
<path fill="#000000" opacity="1.000000" stroke="none" 
	d="
M379.359558,471.564331 
	C390.752991,446.837616 417.558289,441.523285 438.280579,451.692505 
	C449.325226,457.112518 457.486572,469.771759 456.831726,480.364288 
	C451.283295,480.364288 445.673676,480.303711 440.066498,480.392944 
	C437.694458,480.430695 437.450439,478.603943 436.981079,477.127258 
	C434.202881,468.386963 427.849030,464.032135 419.125732,463.643799 
	C410.743622,463.270660 403.591888,466.783112 399.504364,474.264221 
	C392.705627,486.707550 392.386993,499.789032 398.247437,512.660034 
	C401.987885,520.875061 409.185577,524.917297 418.030914,524.489075 
	C426.523743,524.077942 434.074036,521.174194 437.002686,511.844269 
	C437.496002,510.272675 438.099152,508.683868 440.299561,508.704102 
	C445.927094,508.755859 451.555389,508.721375 457.564819,508.721375 
	C457.123840,516.013306 454.177124,521.676208 450.095337,526.748291 
	C438.475372,541.187317 422.941833,544.231995 405.972992,540.205322 
	C388.782379,536.125977 379.504974,523.656738 375.821594,507.043213 
	C373.178040,495.119690 374.059235,483.234467 379.359558,471.564331 
z"/>
<path fill="#000000" opacity="1.000000" stroke="none" 
	d="
M903.306641,536.686768 
	C903.292847,544.840942 903.218872,552.669189 903.359375,560.493469 
	C903.419983,563.867310 902.201416,565.293457 898.709900,565.236694 
	C881.522095,564.957581 884.834778,567.121704 884.707275,551.882385 
	C884.503845,527.571045 884.802917,503.255096 884.537476,478.944916 
	C884.480957,473.770935 886.142090,471.953583 891.073364,472.632904 
	C892.380676,472.813019 893.753784,472.806763 895.062683,472.631897 
	C899.522888,472.035980 902.242126,473.322693 901.319763,479.248383 
	C906.293457,475.598083 910.597168,472.484314 916.179260,471.478027 
	C932.554138,468.526001 947.938416,479.010437 950.201416,498.255951 
	C951.128357,506.139099 950.978455,514.136841 948.209656,521.915466 
	C941.438110,540.939026 918.046448,547.387939 905.171265,536.205200 
	C904.572388,535.684998 903.833618,535.002930 903.306641,536.686768 
M904.258545,516.078308 
	C907.991028,523.503418 911.743591,525.612854 919.732239,524.776672 
	C925.835327,524.137817 929.850769,520.302979 931.261047,512.898132 
	C932.190308,508.018951 932.233215,502.974182 931.059998,498.075012 
	C929.227295,490.421997 924.108093,486.274170 917.012878,486.459259 
	C910.131531,486.638794 905.123596,491.326080 903.334961,498.714203 
	C901.962708,504.382111 902.219727,509.863495 904.258545,516.078308 
z"/>
<path fill="#000000" opacity="1.000000" stroke="none" 
	d="
M746.374512,492.027161 
	C748.145203,507.226044 746.869751,522.046326 747.162048,536.839722 
	C747.212341,539.385132 745.820129,540.420105 743.403687,540.335693 
	C743.237671,540.329895 743.070801,540.349426 742.904541,540.346436 
	C724.891846,540.024475 728.374084,543.046143 728.047729,526.437256 
	C727.867859,517.284058 728.014099,508.123596 727.767273,498.973053 
	C727.587585,492.310730 724.442688,488.518951 718.840515,487.487000 
	C713.127258,486.434509 706.948975,489.853638 704.784302,495.440308 
	C703.762878,498.076569 703.295593,500.841888 703.317810,503.731873 
	C703.399780,514.385620 703.251465,525.041748 703.394714,535.694275 
	C703.440491,539.097717 702.298035,540.307068 698.817078,540.419495 
	C684.654419,540.876892 684.661621,540.980957 684.654541,526.801636 
	C684.642456,502.662628 684.619019,478.523621 684.613647,454.384613 
	C684.612183,447.686279 684.635376,447.574005 691.110962,447.669983 
	C704.606262,447.869904 702.998657,445.375153 703.197571,459.979553 
	C703.278015,465.882446 703.210815,471.787323 703.210815,479.006409 
	C713.148376,471.359619 722.838257,468.401886 733.414001,473.657471 
	C740.738037,477.297058 744.810181,483.614716 746.374512,492.027161 
z"/>
<path fill="#000000" opacity="1.000000" stroke="none" 
	d="
M481.489502,501.115173 
	C488.066895,499.808685 494.292877,498.768829 500.454224,497.431335 
	C502.976349,496.883911 506.226471,496.313507 506.291473,492.959106 
	C506.353210,489.771362 504.324677,487.437378 501.303894,486.101868 
	C495.832489,483.682892 489.661194,485.409180 486.615234,490.613739 
	C485.606506,492.337280 484.474823,492.994354 482.686096,492.994110 
	C479.021149,492.993622 475.356171,492.977722 471.691223,492.982300 
	C467.857635,492.987091 467.307983,491.134735 468.344360,487.784332 
	C471.194092,478.571747 478.226410,474.202606 486.832825,472.104767 
	C494.875793,470.144226 502.997711,470.360260 510.823029,473.645752 
	C519.666077,477.358521 524.149780,484.206818 524.377747,493.826263 
	C524.712708,507.963135 523.364197,522.134705 525.212219,536.237915 
	C525.620300,539.352112 524.188660,540.454773 521.246399,540.352234 
	C518.417847,540.253601 515.573486,540.196594 512.753052,540.380798 
	C508.987823,540.626770 506.013672,540.090637 506.525421,534.440063 
	C500.884552,538.578735 495.519958,541.236816 489.210632,541.766968 
	C476.542603,542.831604 465.818207,535.423279 465.003693,524.057434 
	C464.288208,514.073303 468.656586,505.063232 481.489502,501.115173 
M505.905365,509.349274 
	C499.804657,509.678619 493.726410,510.316437 488.108551,512.866455 
	C484.548950,514.482239 483.056580,517.789612 483.739807,521.479858 
	C484.477936,525.467041 487.145477,527.596680 491.486481,527.742432 
	C501.951202,528.093506 507.405396,521.654236 505.905365,509.349274 
z"/>
<path fill="#000000" opacity="1.000000" stroke="none" 
	d="
M578.694824,495.997375 
	C578.705078,489.334290 578.812073,483.168640 578.686401,477.007782 
	C578.621094,473.804382 579.859619,472.563141 583.086731,472.632263 
	C600.593506,473.007385 597.059082,470.111542 597.298462,486.108368 
	C597.537659,502.097198 597.133240,518.096985 597.471313,534.082214 
	C597.581787,539.306702 595.797791,541.026245 590.912598,540.374207 
	C589.603333,540.199585 588.250732,540.352234 586.918030,540.350342 
	C578.847229,540.339172 578.847229,540.338745 579.074890,532.098328 
	C573.054016,538.960327 565.946716,542.398071 556.904602,541.487549 
	C545.434937,540.332581 536.004822,530.977112 535.740601,519.352295 
	C535.419006,505.199524 535.700806,491.033905 535.580811,476.875031 
	C535.552551,473.535980 537.008240,472.711639 540.091187,472.607208 
	C554.328186,472.124969 554.328430,472.049316 554.340027,486.096558 
	C554.346741,494.259338 554.316162,502.422272 554.350525,510.584900 
	C554.388123,519.507385 558.228271,524.456299 565.139648,524.587097 
	C571.891602,524.714783 578.019348,518.712280 578.569153,510.984558 
	C578.911255,506.176666 578.672974,501.327484 578.694824,495.997375 
z"/>
<path fill="#000000" opacity="1.000000" stroke="none" 
	d="
M779.472778,453.164276 
	C782.991150,454.643341 781.859192,457.484436 782.114258,459.812683 
	C782.276489,461.293549 782.167358,462.804962 782.166504,464.302704 
	C782.161560,472.424591 781.260925,473.184204 789.990601,472.654266 
	C793.265503,472.455475 794.244324,473.983948 794.354065,477.103027 
	C794.689819,486.650482 794.794434,486.640564 785.162903,486.894867 
	C784.361633,486.916016 783.564697,487.098877 782.505920,487.241638 
	C782.505920,498.323395 782.310425,509.246033 782.627991,520.153687 
	C782.720276,523.323975 785.417847,525.031311 788.732727,524.638977 
	C792.624329,524.178284 794.088379,525.569092 794.770874,529.624023 
	C796.511658,539.967041 795.830933,541.095337 785.042358,541.341064 
	C770.013855,541.683350 763.691040,535.523499 763.660583,520.476868 
	C763.641724,511.157410 763.510498,501.834534 763.723389,492.519928 
	C763.813721,488.568604 762.777771,486.770905 758.453308,486.836426 
	C752.615662,486.924957 752.864746,486.631775 752.562683,478.878510 
	C752.380798,474.209381 753.658142,471.926727 758.623657,472.650604 
	C762.630310,473.234680 763.700806,471.241669 763.759155,467.447937 
	C763.829224,462.895508 761.621033,457.014862 764.977600,454.099976 
	C768.400146,451.127808 774.247192,453.299988 779.472778,453.164276 
z"/>
<path fill="#000000" opacity="1.000000" stroke="none" 
	d="
M129.040482,494.222931 
	C125.681351,491.453888 124.599792,488.183838 124.625198,484.272522 
	C124.717079,470.128448 124.634651,455.983276 124.679901,441.838715 
	C124.703201,434.556702 128.457306,430.708099 135.688141,430.673798 
	C149.998917,430.605865 164.310501,430.605286 178.621201,430.681427 
	C186.022552,430.720795 190.282852,435.057098 190.320053,442.560120 
	C190.388565,456.371643 190.389603,470.184021 190.320801,483.995544 
	C190.281097,491.965698 185.922180,496.295837 177.902496,496.336548 
	C164.257370,496.405853 150.611572,496.329254 136.966309,496.382019 
	C134.231003,496.392578 131.681259,495.975037 129.040482,494.222931 
z"/>
<path fill="#000000" opacity="1.000000" stroke="none" 
	d="
M130.705231,542.898499 
	C159.601746,542.755798 188.071762,542.676025 216.541565,542.722778 
	C222.126358,542.731934 225.444626,546.011963 225.321976,550.765747 
	C225.205933,555.263794 221.864746,558.321045 216.585724,558.332153 
	C188.946655,558.390381 161.307388,558.343201 133.668259,558.389404 
	C129.308624,558.396667 126.056076,556.678040 124.951447,552.449585 
	C123.757103,547.877747 126.059799,544.780151 130.705231,542.898499 
z"/>
<path fill="#000000" opacity="1.000000" stroke="none" 
	d="
M216.970001,525.021973 
	C214.713226,527.230347 212.246979,527.361877 209.707855,527.359985 
	C184.595520,527.341370 159.483154,527.361511 134.370865,527.322266 
	C128.540421,527.313110 124.928093,524.550476 124.699905,520.167419 
	C124.448952,515.346924 127.801476,511.980530 133.902893,511.955475 
	C159.346634,511.851074 184.793396,511.805969 210.234512,512.112976 
	C218.724319,512.215454 221.619110,517.970520 216.970001,525.021973 
z"/>
<path fill="#000000" opacity="1.000000" stroke="none" 
	d="
M263.654297,442.665375 
	C269.431824,443.442627 272.705383,446.293304 272.149231,450.301178 
	C271.532806,454.743500 268.813446,457.530334 264.076508,457.522858 
	C246.135910,457.494537 228.193924,457.484955 210.256058,457.221893 
	C206.166504,457.161926 203.502884,453.463104 203.683472,449.313629 
	C203.865387,445.133911 206.511871,442.696869 211.334274,442.680267 
	C228.620956,442.620667 245.907974,442.659790 263.654297,442.665375 
z"/>
<path fill="#000000" opacity="1.000000" stroke="none" 
	d="
M226.941742,474.476379 
	C230.895645,476.875977 232.332703,480.152710 230.956406,484.024200 
	C229.594009,487.856598 226.356583,489.440125 222.281097,489.348206 
	C218.635788,489.265991 214.976913,489.479523 211.343567,489.251282 
	C206.572556,488.951599 203.592636,485.670166 203.665512,481.202393 
	C203.739075,476.693146 206.714188,473.702637 211.731812,473.716675 
	C216.673569,473.730499 221.665665,472.984192 226.941742,474.476379 
z"/>
</svg>